STARTFONT 2.1
FONT -Monotype-Arial-Bold-R-Normal--33-240-100-100-P-159-iso8859-9
SIZE 24 100 100
FONTBOUNDINGBOX 38 38 -5 -7

STARTPROPERTIES 24
FOUNDRY "Monotype"
FAMILY_NAME "Arial"
WEIGHT_NAME "Bold"
SLANT "R"
SETWIDTH_NAME "Normal"
ADD_STYLE_NAME ""
PIXEL_SIZE 33
POINT_SIZE 240
RESOLUTION_X 100
RESOLUTION_Y 100
SPACING "P"
AVERAGE_WIDTH 159
CHARSET_REGISTRY "iso8859"
CHARSET_ENCODING "9"
FACE_NAME "Arial Bold ISO Latin5"
_DEC_DEVICE_FONTNAMES "PS=arial-b-lat5"
COPYRIGHT "Copyright (c) 1993 Monotype Typography Ltd."
CAP_HEIGHT 27
X_HEIGHT 19
WEIGHT 10
QUAD_WIDTH 21
DEFAULT_CHAR 160
FONT_DESCENT 7
FONT_ASCENT 31
ENDPROPERTIES

CHARS 191

STARTCHAR space
ENCODING 32
SWIDTH 333 0
DWIDTH 11 0
BBX 0 0 0 0
BITMAP
ENDCHAR

STARTCHAR exclam
ENCODING 33
SWIDTH 333 0
DWIDTH 11 0
BBX 5 24 3 0
BITMAP
F8
F8
F8
F8
F8
F8
F8
F8
F8
F8
70
70
70
70
70
70
70
70
00
F8
F8
F8
F8
F8
ENDCHAR

STARTCHAR quotedbl
ENCODING 34
SWIDTH 474 0
DWIDTH 16 0
BBX 12 9 2 15
BITMAP
F9F0
F9F0
F9F0
F9F0
F9F0
F9F0
F0F0
70E0
70E0
ENDCHAR

STARTCHAR numbersign
ENCODING 35
SWIDTH 556 0
DWIDTH 18 0
BBX 18 24 0 0
BITMAP
03C780
03C780
038780
078700
078F00
078F00
FFFFC0
FFFFC0
FFFFC0
FFFFC0
0F1E00
0F1E00
0E1E00
1E1C00
FFFFC0
FFFFC0
FFFFC0
DFFFC0
3C3800
3C7800
3C7800
387800
387000
787000
ENDCHAR

STARTCHAR dollar
ENCODING 36
SWIDTH 556 0
DWIDTH 18 0
BBX 16 29 1 -3
BITMAP
0180
0180
07E0
1FF8
3FFC
3FFE
7DBE
799E
7980
7980
7D80
3F80
3FE0
1FF8
0FFC
03FE
01BF
019F
018F
F98F
798F
7D9F
7FBE
3FFE
1FFC
0FF0
0180
0180
0180
ENDCHAR

STARTCHAR percent
ENCODING 37
SWIDTH 889 0
DWIDTH 29 0
BBX 27 25 1 -1
BITMAP
1E003C00
3F807800
7FC07000
71C0F000
F1E0E000
F1E1E000
F1E1C000
F1E3C000
F1E38000
71C78000
7FC70000
3F8F0000
0E0E0E00
001E3F80
001C7FC0
003C71C0
0038F1E0
0078F1E0
0070F1E0
00F0F1E0
00E0F1E0
01E071C0
01C07FC0
03C03F80
03800E00
ENDCHAR

STARTCHAR ampersand
ENCODING 38
SWIDTH 722 0
DWIDTH 24 0
BBX 22 25 2 -1
BITMAP
03F800
0FFC00
0FFE00
1F1F00
1E0F00
1E0F00
1F1F00
0FBE00
0FFE00
03FC00
07F000
1FF000
3FF800
7EFCF0
7C7DF0
F83FE0
F83FE0
F81FE0
F80FC0
7C1FE0
7E7FFC
3FFFF8
1FFCF8
0FF870
000010
ENDCHAR

STARTCHAR quoteright
ENCODING 39
SWIDTH 278 0
DWIDTH 9 0
BBX 5 10 2 14
BITMAP
F8
F8
F8
F8
F8
38
30
70
E0
C0
ENDCHAR

STARTCHAR parenleft
ENCODING 40
SWIDTH 333 0
DWIDTH 11 0
BBX 8 31 2 -7
BITMAP
07
0E
1E
1E
3C
3C
78
78
78
78
F8
F0
F0
F0
F0
F0
F0
F0
F0
F0
F8
78
78
78
3C
3C
3C
1E
1E
0E
07
ENDCHAR

STARTCHAR parenright
ENCODING 41
SWIDTH 333 0
DWIDTH 11 0
BBX 8 31 1 -7
BITMAP
E0
70
78
78
3C
3C
1E
1E
1E
1F
1F
0F
0F
0F
0F
0F
0F
0F
0F
0F
1F
1E
1E
1E
3C
3C
3C
78
78
70
E0
ENDCHAR

STARTCHAR asterisk
ENCODING 42
SWIDTH 389 0
DWIDTH 13 0
BBX 11 11 1 13
BITMAP
0E00
0E00
8E20
ECE0
FFE0
6FE0
1E00
3F00
7B80
71C0
2100
ENDCHAR

STARTCHAR plus
ENCODING 43
SWIDTH 584 0
DWIDTH 19 0
BBX 16 16 2 4
BITMAP
03C0
03C0
03C0
03C0
03C0
03C0
FFFF
FFFF
FFFF
FFFF
03C0
03C0
03C0
03C0
03C0
03C0
ENDCHAR

STARTCHAR comma
ENCODING 44
SWIDTH 278 0
DWIDTH 9 0
BBX 5 10 2 -5
BITMAP
F8
F8
F8
F8
F8
38
30
70
E0
C0
ENDCHAR

STARTCHAR minus
ENCODING 45
SWIDTH 584 0
DWIDTH 19 0
BBX 17 4 1 10
BITMAP
FFFF80
FFFF80
FFFF80
FFFF80
ENDCHAR

STARTCHAR period
ENCODING 46
SWIDTH 278 0
DWIDTH 9 0
BBX 5 5 2 0
BITMAP
F8
F8
F8
F8
F8
ENDCHAR

STARTCHAR slash
ENCODING 47
SWIDTH 278 0
DWIDTH 9 0
BBX 9 24 0 0
BITMAP
0380
0780
0780
0700
0700
0F00
0F00
0E00
0E00
0E00
1E00
1C00
1C00
1C00
3C00
3800
3800
3800
7800
7800
7000
7000
F000
F000
ENDCHAR

STARTCHAR zero
ENCODING 48
SWIDTH 556 0
DWIDTH 18 0
BBX 16 24 1 0
BITMAP
07E0
0FF0
1FFC
3FFC
7C3E
7C3E
781E
781F
F81F
F81F
F81F
F81F
F81F
F81F
F81F
F81F
781F
781E
7C3E
7C3E
3FFC
1FF8
0FF0
03E0
ENDCHAR

STARTCHAR one
ENCODING 49
SWIDTH 556 0
DWIDTH 18 0
BBX 11 24 2 0
BITMAP
01E0
03E0
03E0
07E0
1FE0
3FE0
FFE0
FBE0
F3E0
C3E0
03E0
03E0
03E0
03E0
03E0
03E0
03E0
03E0
03E0
03E0
03E0
03E0
03E0
03E0
ENDCHAR

STARTCHAR two
ENCODING 50
SWIDTH 556 0
DWIDTH 18 0
BBX 16 24 1 0
BITMAP
07E0
1FF8
3FFC
3FFE
7C3E
781F
F81F
081F
001F
001E
003E
007C
00FC
01F8
03F0
07E0
0FC0
1F80
3F00
3E00
7FFF
7FFF
FFFF
FFFF
ENDCHAR

STARTCHAR three
ENCODING 51
SWIDTH 556 0
DWIDTH 18 0
BBX 16 24 1 0
BITMAP
07C0
1FF0
3FF8
3FFC
7C7E
783E
783E
003E
003C
00FC
03E8
03F0
03FC
003E
001E
001F
001F
F81F
F81F
7C3E
7FFE
3FFC
1FF8
07C0
ENDCHAR

STARTCHAR four
ENCODING 52
SWIDTH 556 0
DWIDTH 18 0
BBX 17 24 1 0
BITMAP
003C00
007C00
007C00
00FC00
01FC00
01FC00
03FC00
07BC00
07BC00
0F3C00
1E3C00
1E3C00
3C3C00
783C00
F03C00
FFFF80
FFFF80
FFFF80
FFFF80
003C00
003C00
003C00
003C00
003C00
ENDCHAR

STARTCHAR five
ENCODING 53
SWIDTH 556 0
DWIDTH 18 0
BBX 16 24 2 0
BITMAP
1FFE
3FFE
3FFE
3FFE
3C00
3C00
3C00
7DE0
7FF8
7FFC
7FFE
7C3E
101E
001F
001F
001F
001F
F81F
F83E
7C7E
7FFC
3FF8
1FF0
07C0
ENDCHAR

STARTCHAR six
ENCODING 54
SWIDTH 556 0
DWIDTH 18 0
BBX 16 24 1 0
BITMAP
03E0
0FF8
1FFC
3FFE
7E3E
7C1F
7818
F800
F800
FBF0
FBFC
FFFE
FE3E
FC1F
F81F
F80F
F80F
780F
7C1F
7E1F
3FFE
1FFC
0FF8
03E0
ENDCHAR

STARTCHAR seven
ENCODING 55
SWIDTH 556 0
DWIDTH 18 0
BBX 16 23 1 0
BITMAP
FFFF
FFFF
FFFF
FFDF
003E
003C
0078
00F8
00F0
01F0
01E0
03E0
03C0
07C0
0780
0780
0780
0F80
0F00
0F00
0F00
0F00
0F00
ENDCHAR

STARTCHAR eight
ENCODING 56
SWIDTH 556 0
DWIDTH 18 0
BBX 15 24 2 0
BITMAP
0FC0
3FF0
7FF8
7FFC
F87C
F03C
F03C
F03C
787C
3FF8
0FE0
3FF0
7FF8
783C
F83E
F01E
F01E
F01E
F83E
FC3E
7FFC
3FF8
1FF0
07C0
ENDCHAR

STARTCHAR nine
ENCODING 57
SWIDTH 556 0
DWIDTH 18 0
BBX 16 24 1 0
BITMAP
07C0
1FF0
3FF8
7FFC
F87E
F83E
F01F
F01F
F01F
F81F
F83F
7C7F
7FFF
3FEF
0FDF
001F
001F
181E
F83E
7C7E
7FFC
3FF8
1FF0
07C0
ENDCHAR

STARTCHAR colon
ENCODING 58
SWIDTH 333 0
DWIDTH 11 0
BBX 5 17 3 0
BITMAP
F8
F8
F8
F8
F8
00
00
00
00
00
00
00
F8
F8
F8
F8
F8
ENDCHAR

STARTCHAR semicolon
ENCODING 59
SWIDTH 333 0
DWIDTH 11 0
BBX 5 22 3 -5
BITMAP
F8
F8
F8
F8
F8
00
00
00
00
00
00
00
F8
F8
F8
F8
F8
38
30
70
E0
C0
ENDCHAR

STARTCHAR less
ENCODING 60
SWIDTH 584 0
DWIDTH 19 0
BBX 16 18 2 3
BITMAP
0001
0007
001F
00FF
03FF
0FFC
7FF0
FF80
F600
F800
FF00
FFC0
3FF8
07FE
01FF
007F
000F
0003
ENDCHAR

STARTCHAR equal
ENCODING 61
SWIDTH 584 0
DWIDTH 19 0
BBX 17 11 1 6
BITMAP
FFFF80
FFFF80
FFFF80
FFFF80
000000
000000
000000
FFFF80
FFFF80
FFFF80
FFFF80
ENDCHAR

STARTCHAR greater
ENCODING 62
SWIDTH 584 0
DWIDTH 19 0
BBX 16 18 2 3
BITMAP
8000
C000
F000
FE00
FF80
7FE0
0FFC
03FF
005F
003F
00FF
07FE
1FF8
FFE0
FF00
FC00
F000
8000
ENDCHAR

STARTCHAR question
ENCODING 63
SWIDTH 611 0
DWIDTH 20 0
BBX 17 24 2 0
BITMAP
0FF000
3FFC00
7FFF00
7E3F00
F80F80
F00F80
F00780
000F80
000F80
003F00
007F00
00FC00
01F800
03F000
03E000
03C000
03C000
03C000
000000
03E000
03E000
03E000
03E000
03E000
ENDCHAR

STARTCHAR at
ENCODING 64
SWIDTH 975 0
DWIDTH 32 0
BBX 31 31 1 -7
BITMAP
000FF000
007FFE00
01FFFF80
03F80FC0
07C003E0
0F0000F0
1E000070
3C0F9E38
383FDE38
787FFE1C
70F87E1C
71F03E1C
71E03C1C
E1E03C1C
E3E03C1C
E3C03C1C
E3C03838
E3C07838
E3C07870
E3E0F8F0
71E1F9E0
71FFFFC0
78FF7F80
387E7E00
3C00001E
1E00003C
0F8000F8
07E007F0
03FFFFE0
00FFFF80
001FFC00
ENDCHAR

STARTCHAR A
ENCODING 65
SWIDTH 722 0
DWIDTH 24 0
BBX 24 24 0 0
BITMAP
007C00
007E00
00FE00
00FF00
00FF00
01FF00
01EF80
03EF80
03E7C0
03C7C0
07C3C0
07C3E0
0F83E0
0F81F0
0FFFF0
1FFFF0
1FFFF8
3FFFF8
3E007C
3E007C
7C007C
7C003E
7C003E
F8003F
ENDCHAR

STARTCHAR B
ENCODING 66
SWIDTH 722 0
DWIDTH 24 0
BBX 20 24 2 0
BITMAP
FFFE00
FFFF80
FFFFC0
FFFFC0
F807E0
F803E0
F803E0
F803E0
F803C0
F80FC0
FFFF80
FFFF00
FFFFC0
FFFFE0
F803E0
F801F0
F801F0
F801F0
F801F0
F803F0
FFFFE0
FFFFC0
FFFF80
FFFF00
ENDCHAR

STARTCHAR C
ENCODING 67
SWIDTH 722 0
DWIDTH 24 0
BBX 21 24 2 0
BITMAP
01FE00
07FF80
0FFFC0
1FFFE0
3F07F0
3E01F0
7C01F8
7C00C0
F80000
F80000
F80000
F80000
F80000
F80000
F80000
F80080
7C00F8
7C01F0
7E03F0
3F07E0
1FFFE0
0FFFC0
07FF80
00FC00
ENDCHAR

STARTCHAR D
ENCODING 68
SWIDTH 722 0
DWIDTH 24 0
BBX 20 24 2 0
BITMAP
FFFC00
FFFF00
FFFF80
FFFFC0
F80FC0
F807E0
F803E0
F803F0
F801F0
F801F0
F801F0
F801F0
F801F0
F801F0
F801F0
F801F0
F801F0
F803E0
F807E0
F80FC0
FFFFC0
FFFF80
FFFF00
FFF800
ENDCHAR

STARTCHAR E
ENCODING 69
SWIDTH 667 0
DWIDTH 22 0
BBX 18 24 2 0
BITMAP
FFFFC0
FFFFC0
FFFFC0
FFFFC0
F80000
F80000
F80000
F80000
F80000
FFFF80
FFFF80
FFFF80
FFFF80
F80000
F80000
F80000
F80000
F80000
F80000
F80000
FFFFC0
FFFFC0
FFFFC0
FFFFC0
ENDCHAR

STARTCHAR F
ENCODING 70
SWIDTH 611 0
DWIDTH 20 0
BBX 16 24 2 0
BITMAP
FFFF
FFFF
FFFF
FFFF
F800
F800
F800
F800
F800
F800
FFFE
FFFE
FFFE
FFFE
F800
F800
F800
F800
F800
F800
F800
F800
F800
F800
ENDCHAR

STARTCHAR G
ENCODING 71
SWIDTH 778 0
DWIDTH 26 0
BBX 22 24 2 0
BITMAP
00FF00
07FFC0
0FFFE0
1FFFF0
3F83F8
3E00F8
7C007C
7C0040
F80000
F80000
F80000
F80FFC
F80FFC
F80FFC
F80FFC
7C007C
7C007C
7E007C
3F00FC
3F83FC
1FFFFC
0FFFF0
03FFC0
00FF00
ENDCHAR

STARTCHAR H
ENCODING 72
SWIDTH 722 0
DWIDTH 24 0
BBX 19 24 2 0
BITMAP
F803E0
F803E0
F803E0
F803E0
F803E0
F803E0
F803E0
F803E0
F803E0
FFFFE0
FFFFE0
FFFFE0
FFFFE0
F803E0
F803E0
F803E0
F803E0
F803E0
F803E0
F803E0
F803E0
F803E0
F803E0
F803E0
ENDCHAR

STARTCHAR I
ENCODING 73
SWIDTH 278 0
DWIDTH 9 0
BBX 5 24 2 0
BITMAP
F8
F8
F8
F8
F8
F8
F8
F8
F8
F8
F8
F8
F8
F8
F8
F8
F8
F8
F8
F8
F8
F8
F8
F8
ENDCHAR

STARTCHAR J
ENCODING 74
SWIDTH 556 0
DWIDTH 18 0
BBX 15 24 1 0
BITMAP
003E
003E
003E
003E
003E
003E
003E
003E
003E
003E
003E
003E
003E
003E
003E
003E
F03E
F03E
F83E
FC7C
7FFC
7FF8
3FF0
0FC0
ENDCHAR

STARTCHAR K
ENCODING 75
SWIDTH 722 0
DWIDTH 24 0
BBX 21 24 2 0
BITMAP
F803F8
F807F0
F80FE0
F81FC0
F81F80
F83F00
F87E00
F8FC00
F9F800
FBF000
FBF800
FFF800
FFFC00
FF7E00
FE3E00
FC3F00
F81F80
F80F80
F80FC0
F807E0
F807E0
F803F0
F803F8
F801F8
ENDCHAR

STARTCHAR L
ENCODING 76
SWIDTH 611 0
DWIDTH 20 0
BBX 17 24 2 0
BITMAP
F80000
F80000
F80000
F80000
F80000
F80000
F80000
F80000
F80000
F80000
F80000
F80000
F80000
F80000
F80000
F80000
F80000
F80000
F80000
F80000
FFFF80
FFFF80
FFFF80
FFFF80
ENDCHAR

STARTCHAR M
ENCODING 77
SWIDTH 833 0
DWIDTH 27 0
BBX 23 24 3 0
BITMAP
FE01FE
FE01FE
FF01FE
FF01FE
FF03FE
F703DE
F783DE
F783DE
F787BE
F787BE
F3C7BE
F3C7BE
F3CF3E
F3EF3E
F1EF3E
F1FF3E
F1FE3E
F1FE3E
F0FE3E
F0FE3E
F0FC3E
F0FC3E
F07C3E
F07C3E
ENDCHAR

STARTCHAR N
ENCODING 78
SWIDTH 722 0
DWIDTH 24 0
BBX 18 24 3 0
BITMAP
F803C0
F803C0
FC03C0
FC03C0
FE03C0
FF03C0
FF03C0
FF83C0
F783C0
F7C3C0
F7E3C0
F3E3C0
F1F3C0
F1F3C0
F0FBC0
F07DC0
F07FC0
F03FC0
F03FC0
F01FC0
F00FC0
F00FC0
F007C0
F007C0
ENDCHAR

STARTCHAR O
ENCODING 79
SWIDTH 778 0
DWIDTH 26 0
BBX 23 24 1 0
BITMAP
01FE00
07FFC0
0FFFE0
1FFFF0
3F83F8
3E00FC
7C007C
7C007C
F8003E
F8003E
F8003E
F8003E
F8003E
F8003E
F8003E
FC003E
7C007C
7E007C
3F00FC
3F83F8
1FFFF0
0FFFE0
07FFC0
00FE00
ENDCHAR

STARTCHAR P
ENCODING 80
SWIDTH 667 0
DWIDTH 22 0
BBX 18 24 2 0
BITMAP
FFFC00
FFFF00
FFFF80
FFFF80
F81FC0
F80FC0
F807C0
F807C0
F807C0
F80FC0
F81F80
FFFF80
FFFF00
FFFE00
FFF800
F80000
F80000
F80000
F80000
F80000
F80000
F80000
F80000
F80000
ENDCHAR

STARTCHAR Q
ENCODING 81
SWIDTH 778 0
DWIDTH 26 0
BBX 24 26 1 -2
BITMAP
01FF00
07FFC0
0FFFE0
1FFFF0
3F83F8
7E00FC
7C007C
7C007C
F8003E
F8003E
F8003E
F8003E
F8003E
F8003E
F8003E
F8003E
7C1C7C
7C3F7C
3E1FFC
3F87F8
1FFFF0
0FFFFC
07FFFF
00FE3E
00001E
000004
ENDCHAR

STARTCHAR R
ENCODING 82
SWIDTH 722 0
DWIDTH 24 0
BBX 22 24 2 0
BITMAP
FFFF00
FFFFC0
FFFFE0
FFFFE0
F803F0
F801F0
F801F0
F801F0
F801F0
F803E0
FFFFE0
FFFFC0
FFFF00
FFFC00
F87E00
F83F00
F81F80
F80FC0
F807E0
F807E0
F803F0
F801F0
F801F8
F800FC
ENDCHAR

STARTCHAR S
ENCODING 83
SWIDTH 667 0
DWIDTH 22 0
BBX 20 24 1 0
BITMAP
03FC00
0FFF00
1FFF80
3FFFC0
3E07E0
7C03E0
7C03E0
7E0000
3F8000
3FF000
1FFF00
0FFFC0
03FFC0
007FE0
0007F0
0001F0
F801F0
7C01F0
7C03F0
7F07E0
3FFFE0
1FFFC0
0FFF80
03FC00
ENDCHAR

STARTCHAR T
ENCODING 84
SWIDTH 611 0
DWIDTH 20 0
BBX 19 24 1 0
BITMAP
FFFFE0
FFFFE0
FFFFE0
FFFFE0
01F000
01F000
01F000
01F000
01F000
01F000
01F000
01F000
01F000
01F000
01F000
01F000
01F000
01F000
01F000
01F000
01F000
01F000
01F000
01F000
ENDCHAR

STARTCHAR U
ENCODING 85
SWIDTH 722 0
DWIDTH 24 0
BBX 19 24 2 0
BITMAP
F803E0
F803E0
F803E0
F803E0
F803E0
F803E0
F803E0
F803E0
F803E0
F803E0
F803E0
F803E0
F803E0
F803E0
F803E0
F803E0
F803E0
F803E0
7C07C0
7E0FC0
3FFFC0
3FFF80
1FFF00
07FC00
ENDCHAR

STARTCHAR V
ENCODING 86
SWIDTH 667 0
DWIDTH 22 0
BBX 22 24 0 0
BITMAP
F8007C
FC00FC
7C00F8
7C00F8
3E01F0
3E01F0
3E01F0
1F03E0
1F03E0
1F03E0
0F87C0
0F87C0
0F87C0
07C780
07CF80
07CF80
03EF00
03EF00
01FE00
01FE00
01FE00
00FC00
00FC00
00FC00
ENDCHAR

STARTCHAR W
ENCODING 87
SWIDTH 944 0
DWIDTH 31 0
BBX 31 24 0 0
BITMAP
F807E03E
F80FE03E
780FE03C
7C0FE03C
7C0FF07C
7C1FF07C
3C1EF078
3E1EF078
3E1EF8F8
3E3EF8F8
1E3C78F8
1E3C78F0
1F3C7CF0
1F7C3DF0
1F783DF0
0F783DE0
0FF83EE0
0FF81FE0
0FF01FE0
07F01FC0
07F01FC0
07F00FC0
07E00FC0
03E00F80
ENDCHAR

STARTCHAR X
ENCODING 88
SWIDTH 667 0
DWIDTH 22 0
BBX 22 24 0 0
BITMAP
7E01F8
3E01F0
3F03F0
1F03E0
0F87E0
0FCFC0
07CF80
07EF80
03FF00
01FE00
01FE00
00FC00
01FC00
01FE00
03FF00
07FF00
07CF80
0FCFC0
1F87C0
1F07E0
3F03F0
7E01F0
7E01F8
FC00FC
ENDCHAR

STARTCHAR Y
ENCODING 89
SWIDTH 667 0
DWIDTH 22 0
BBX 22 24 0 0
BITMAP
F800FC
FC01F8
7C01F0
3E03E0
3F03E0
1F07C0
1F8FC0
0F8F80
07DF00
07FF00
03FE00
01FC00
01FC00
00F800
00F800
00F800
00F800
00F800
00F800
00F800
00F800
00F800
00F800
00F800
ENDCHAR

STARTCHAR Z
ENCODING 90
SWIDTH 611 0
DWIDTH 20 0
BBX 20 24 0 0
BITMAP
3FFFE0
3FFFE0
3FFFE0
3FF7E0
000FC0
000FC0
001F80
003F00
007E00
00FC00
00FC00
01F800
03F000
07E000
0FC000
0FC000
1F8000
3F0000
7E0000
FC0000
FFFFF0
FFFFF0
FFFFF0
FFFFF0
ENDCHAR

STARTCHAR bracketleft
ENCODING 91
SWIDTH 333 0
DWIDTH 11 0
BBX 8 31 3 -7
BITMAP
FF
FF
FF
FF
F0
F0
F0
F0
F0
F0
F0
F0
F0
F0
F0
F0
F0
F0
F0
F0
F0
F0
F0
F0
F0
F0
F0
FF
FF
FF
FF
ENDCHAR

STARTCHAR backslash
ENCODING 92
SWIDTH 278 0
DWIDTH 9 0
BBX 9 24 0 0
BITMAP
E000
F000
7000
7000
7000
7800
3800
3800
3800
3C00
3C00
1C00
1C00
1E00
1E00
0E00
0E00
0F00
0F00
0700
0700
0780
0780
0380
ENDCHAR

STARTCHAR bracketright
ENCODING 93
SWIDTH 333 0
DWIDTH 11 0
BBX 8 31 1 -7
BITMAP
FF
FF
FF
FF
0F
0F
0F
0F
0F
0F
0F
0F
0F
0F
0F
0F
0F
0F
0F
0F
0F
0F
0F
0F
0F
0F
0F
FF
FF
FF
FF
ENDCHAR

STARTCHAR asciicircum
ENCODING 94
SWIDTH 584 0
DWIDTH 19 0
BBX 15 13 2 11
BITMAP
03C0
07C0
07E0
0FE0
0FF0
1EF0
1EF8
3E78
3C78
7C7C
783C
783E
F81E
ENDCHAR

STARTCHAR underscore
ENCODING 95
SWIDTH 556 0
DWIDTH 18 0
BBX 19 2 0 -4
BITMAP
FFFFE0
FFFFE0
ENDCHAR

STARTCHAR quoteleft
ENCODING 96
SWIDTH 278 0
DWIDTH 9 0
BBX 5 10 2 14
BITMAP
18
38
70
60
E0
F8
F8
F8
F8
F8
ENDCHAR

STARTCHAR a
ENCODING 97
SWIDTH 556 0
DWIDTH 18 0
BBX 16 17 1 0
BITMAP
0FF8
3FFC
3FFE
7C3E
781E
001E
007E
0FFE
3FFE
7F1E
781E
F81E
F83E
FC7E
7FFE
3FEF
1F8F
ENDCHAR

STARTCHAR b
ENCODING 98
SWIDTH 611 0
DWIDTH 20 0
BBX 17 24 2 0
BITMAP
F80000
F80000
F80000
F80000
F80000
F80000
F80000
F9F800
FBFC00
FFFE00
FE3F00
FC1F00
F80F80
F80F80
F80F80
F80F80
F80F80
F80F80
FC1F00
FC1F00
FFFE00
F7FE00
F3FC00
F0F000
ENDCHAR

STARTCHAR c
ENCODING 99
SWIDTH 556 0
DWIDTH 18 0
BBX 16 17 1 0
BITMAP
07F0
1FFC
3FFE
7E3F
7C1F
7808
F800
F800
F800
F800
F80C
7C1F
7C1F
3FFE
3FFE
0FF8
03E0
ENDCHAR

STARTCHAR d
ENCODING 100
SWIDTH 611 0
DWIDTH 20 0
BBX 17 24 1 0
BITMAP
000F80
000F80
000F80
000F80
000F80
000F80
000F80
0FCF80
1FF780
3FFF80
7E3F80
7C1F80
F80F80
F80F80
F80F80
F80F80
F80F80
F80F80
7C0F80
7C1F80
3FFF80
3FF780
1FE780
078780
ENDCHAR

STARTCHAR e
ENCODING 101
SWIDTH 556 0
DWIDTH 18 0
BBX 16 17 1 0
BITMAP
07F0
1FF8
3FFC
7E3E
7C1E
781F
F80F
FFFF
FFFF
FFFF
F800
7800
7C1F
7E3E
3FFE
1FFC
07F0
ENDCHAR

STARTCHAR f
ENCODING 102
SWIDTH 333 0
DWIDTH 11 0
BBX 11 24 1 0
BITMAP
0FE0
1FE0
1FE0
3F20
3E00
3E00
3E00
FFC0
FFC0
FFC0
FFC0
3E00
3E00
3E00
3E00
3E00
3E00
3E00
3E00
3E00
3E00
3E00
3E00
3E00
ENDCHAR

STARTCHAR g
ENCODING 103
SWIDTH 611 0
DWIDTH 20 0
BBX 17 24 1 -7
BITMAP
0FE780
1FF780
3FFF80
7E3F80
7C0F80
F80F80
F80780
F80780
F80780
F80780
F80F80
7C0F80
7E1F80
3FFF80
3FF780
1FE780
07C780
000780
700F80
7C0F80
7F3F00
3FFF00
3FFE00
0FFC00
ENDCHAR

STARTCHAR h
ENCODING 104
SWIDTH 611 0
DWIDTH 20 0
BBX 16 24 2 0
BITMAP
F800
F800
F800
F800
F800
F800
F800
F9F8
FFFC
FFFE
FE3F
FC1F
F81F
F81F
F81F
F81F
F81F
F81F
F81F
F81F
F81F
F81F
F81F
F81F
ENDCHAR

STARTCHAR i
ENCODING 105
SWIDTH 278 0
DWIDTH 9 0
BBX 5 24 2 0
BITMAP
F8
F8
F8
F8
00
00
00
F8
F8
F8
F8
F8
F8
F8
F8
F8
F8
F8
F8
F8
F8
F8
F8
F8
ENDCHAR

STARTCHAR j
ENCODING 106
SWIDTH 278 0
DWIDTH 9 0
BBX 9 31 -2 -7
BITMAP
0F80
0F80
0F80
0F80
0000
0000
0000
0F80
0F80
0F80
0F80
0F80
0F80
0F80
0F80
0F80
0F80
0F80
0F80
0F80
0F80
0F80
0F80
0F80
0F80
0F80
0F80
7F80
7F00
7F00
FC00
ENDCHAR

STARTCHAR k
ENCODING 107
SWIDTH 556 0
DWIDTH 18 0
BBX 16 24 2 0
BITMAP
F800
F800
F800
F800
F800
F800
F800
F83F
F87C
F8F8
F9F0
FBE0
FBE0
FFC0
FFE0
FFE0
FEF0
FCF0
F8F8
F87C
F87C
F83E
F83E
F81F
ENDCHAR

STARTCHAR l
ENCODING 108
SWIDTH 278 0
DWIDTH 9 0
BBX 5 24 2 0
BITMAP
F8
F8
F8
F8
F8
F8
F8
F8
F8
F8
F8
F8
F8
F8
F8
F8
F8
F8
F8
F8
F8
F8
F8
F8
ENDCHAR

STARTCHAR m
ENCODING 109
SWIDTH 889 0
DWIDTH 29 0
BBX 26 17 2 0
BITMAP
F1F87E00
F7FCFF80
FFFFFF80
FE3F8FC0
FC3F07C0
F81F07C0
F81E07C0
F81E07C0
F81E07C0
F81E07C0
F81E07C0
F81E07C0
F81E07C0
F81E07C0
F81E07C0
F81E07C0
F81E07C0
ENDCHAR

STARTCHAR n
ENCODING 110
SWIDTH 611 0
DWIDTH 20 0
BBX 16 17 2 0
BITMAP
F1F8
F7FE
F7FE
FE3F
FC1F
F81F
F81F
F81F
F81F
F81F
F81F
F81F
F81F
F81F
F81F
F81F
F81F
ENDCHAR

STARTCHAR o
ENCODING 111
SWIDTH 611 0
DWIDTH 20 0
BBX 18 17 1 0
BITMAP
03F000
0FFC00
1FFE00
3FFF00
7E0F80
7C0F80
F807C0
F807C0
F807C0
F807C0
F807C0
7C0F80
7E1F80
3FFF00
1FFE00
0FFC00
03F000
ENDCHAR

STARTCHAR p
ENCODING 112
SWIDTH 611 0
DWIDTH 20 0
BBX 17 23 2 -6
BITMAP
F0F000
F3FC00
F7FE00
FFFF00
FC1F00
F80F00
F80F80
F80F80
F80F80
F80F80
F80F80
F80F00
FC1F00
FFFE00
FBFE00
FBFC00
F8F000
F80000
F80000
F80000
F80000
F80000
F80000
ENDCHAR

STARTCHAR q
ENCODING 113
SWIDTH 611 0
DWIDTH 20 0
BBX 17 23 1 -6
BITMAP
0FE780
1FF780
3FFF80
7E3F80
7C1F80
F80F80
F80F80
F80F80
F80F80
F80F80
F80F80
7C0F80
7C1F80
3FFF80
3FF780
1FEF80
078F80
000F80
000F80
000F80
000F80
000F80
000F80
ENDCHAR

STARTCHAR r
ENCODING 114
SWIDTH 389 0
DWIDTH 13 0
BBX 11 17 2 0
BITMAP
F3E0
F7E0
F7E0
FFC0
FC40
F800
F800
F800
F800
F800
F800
F800
F800
F800
F800
F800
F800
ENDCHAR

STARTCHAR s
ENCODING 115
SWIDTH 556 0
DWIDTH 18 0
BBX 17 17 0 0
BITMAP
0FF800
3FFE00
3FFE00
7C1F00
780E00
7C0000
7FE000
3FFC00
1FFF00
07FF00
007F80
080F80
F80F80
7E1F00
3FFF00
1FFE00
07F800
ENDCHAR

STARTCHAR t
ENCODING 116
SWIDTH 333 0
DWIDTH 11 0
BBX 10 23 0 0
BITMAP
0200
0E00
1E00
3E00
3E00
3E00
FFC0
FFC0
FFC0
FFC0
3E00
3E00
3E00
3E00
3E00
3E00
3E00
3E00
3E00
3FC0
1FC0
1FC0
0780
ENDCHAR

STARTCHAR u
ENCODING 117
SWIDTH 611 0
DWIDTH 20 0
BBX 16 17 2 0
BITMAP
F81F
F81F
F81F
F81F
F81F
F81F
F81F
F81F
F81F
F81F
F81F
F81F
F83F
7C7F
7FEF
3FEF
1F8F
ENDCHAR

STARTCHAR v
ENCODING 118
SWIDTH 556 0
DWIDTH 18 0
BBX 18 17 0 0
BITMAP
F807C0
7C0780
7C0F80
3C0F80
3E0F00
3E1F00
1E1E00
1F1E00
0F3E00
0FBC00
07FC00
07F800
07F800
03F800
03F000
01F000
01E000
ENDCHAR

STARTCHAR w
ENCODING 119
SWIDTH 778 0
DWIDTH 26 0
BBX 26 17 0 0
BITMAP
F81E07C0
783E0780
783F0F80
7C3F0F80
3C3F0F00
3C7F0F00
3C7B9F00
1E779E00
1EF79E00
1EF3DE00
1F73DC00
0FE3FC00
0FE1FC00
0FE1F800
07E1F800
07C1F800
07C0F000
ENDCHAR

STARTCHAR x
ENCODING 120
SWIDTH 556 0
DWIDTH 18 0
BBX 18 17 0 0
BITMAP
7C0FC0
7E1F80
3F1F00
1F3E00
0FBC00
0FFC00
07F800
03F000
03F000
03F800
07FC00
0FFC00
1F3E00
1F3F00
3E1F00
7C0F80
FC0FC0
ENDCHAR

STARTCHAR y
ENCODING 121
SWIDTH 556 0
DWIDTH 18 0
BBX 18 24 0 -7
BITMAP
F807C0
7C0780
7C0F80
3C0F80
3E0F00
3E1F00
1E1F00
1F1E00
0F3E00
0F3C00
0FBC00
07BC00
07F800
07F800
03F800
03F000
01F000
01E000
03E000
07E000
7FC000
3FC000
3F8000
3E0000
ENDCHAR

STARTCHAR z
ENCODING 122
SWIDTH 500 0
DWIDTH 17 0
BBX 15 17 1 0
BITMAP
FFFC
FFFC
FFFC
FFFC
00F8
01F0
03F0
07E0
0FC0
1F80
3F00
7E00
FC00
FFFE
FFFE
FFFE
FFFE
ENDCHAR

STARTCHAR braceleft
ENCODING 123
SWIDTH 389 0
DWIDTH 13 0
BBX 11 31 1 -7
BITMAP
03E0
07E0
0FE0
0FE0
0F00
0F00
0F00
0F00
0F00
1F00
1F00
1E00
1E00
FE00
FC00
F800
FC00
7E00
1E00
1F00
1F00
1F00
0F00
0F00
0F00
0F00
0F00
0FE0
0FE0
07E0
01E0
ENDCHAR

STARTCHAR bar
ENCODING 124
SWIDTH 280 0
DWIDTH 9 0
BBX 4 31 3 -7
BITMAP
F0
F0
F0
F0
F0
F0
F0
F0
F0
F0
F0
F0
F0
F0
F0
F0
F0
F0
F0
F0
F0
F0
F0
F0
F0
F0
F0
F0
F0
F0
F0
ENDCHAR

STARTCHAR braceright
ENCODING 125
SWIDTH 389 0
DWIDTH 13 0
BBX 11 31 1 -7
BITMAP
F000
FC00
FE00
FE00
1E00
1E00
1E00
1E00
1E00
1E00
1F00
1F00
0F00
0FE0
07E0
03E0
07E0
0FC0
0F00
1F00
1F00
1E00
1E00
1E00
1E00
1E00
1E00
FE00
FE00
FC00
F000
ENDCHAR

STARTCHAR asciitilde
ENCODING 126
SWIDTH 584 0
DWIDTH 19 0
BBX 17 6 1 9
BITMAP
3F0080
7FE180
FFFF80
FFFF80
E1FF80
803E00
ENDCHAR

STARTCHAR space
ENCODING 160
SWIDTH 333 0
DWIDTH 13 0
BBX 0 0 0 0
BITMAP
ENDCHAR

STARTCHAR exclamdown
ENCODING 161
SWIDTH 333 0
DWIDTH 11 0
BBX 5 24 3 -7
BITMAP
F8
F8
F8
F8
F8
00
70
70
70
70
70
70
70
70
F8
F8
F8
F8
F8
F8
F8
F8
F8
F8
ENDCHAR

STARTCHAR cent
ENCODING 162
SWIDTH 556 0
DWIDTH 18 0
BBX 16 30 1 -6
BITMAP
000C
0018
0018
0018
0038
0030
07F0
1FFC
3FFE
3FBE
7C6F
78DF
F8C0
F8C0
F9C0
F980
F980
F98F
7D1F
7F3F
3FFE
1FFC
0FF8
07E0
0E00
0C00
0C00
1C00
1800
1800
ENDCHAR

STARTCHAR sterling
ENCODING 163
SWIDTH 556 0
DWIDTH 18 0
BBX 18 24 0 0
BITMAP
01F000
0FFC00
1FFE00
1FFF00
3E1F00
3C0F80
3C0E00
3C0000
3C0000
3E0000
FFF000
FFF000
FFF000
FFF000
0F0000
0F0000
1F0000
1E0000
3C0000
7DC100
FFFF80
7FFF80
7FFFC0
203F80
ENDCHAR

STARTCHAR currency
ENCODING 164
SWIDTH 556 0
DWIDTH 18 0
BBX 16 16 1 4
BITMAP
2004
77CE
FFFF
7FFE
3FFC
3C3E
781E
781E
781E
781E
3C3C
3FFC
7FFE
FFFF
73CE
2004
ENDCHAR

STARTCHAR yen
ENCODING 165
SWIDTH 556 0
DWIDTH 18 0
BBX 19 24 0 0
BITMAP
FC07E0
7C07C0
3E0F80
3E0F80
1F0F00
1F1F00
0F1E00
0FBE00
07BC00
07FC00
7FFFC0
7FFFC0
7FFFC0
7FFFC0
01F000
01F000
7FFFC0
7FFFC0
7FFFC0
7FFFC0
01F000
01F000
01F000
01F000
ENDCHAR

STARTCHAR brokenbar
ENCODING 166
SWIDTH 280 0
DWIDTH 9 0
BBX 4 31 3 -7
BITMAP
F0
F0
F0
F0
F0
F0
F0
F0
F0
F0
F0
F0
F0
00
00
00
00
00
F0
F0
F0
F0
F0
F0
F0
F0
F0
F0
F0
F0
F0
ENDCHAR

STARTCHAR section
ENCODING 167
SWIDTH 556 0
DWIDTH 18 0
BBX 16 31 1 -7
BITMAP
0FF0
1FF8
3FFC
7E7C
7C3E
7C30
3E00
3F00
1FC0
3FE0
7FF8
FBFC
F0FE
F07E
F83F
F81F
7E0F
7F0F
3F9F
1FFE
07FC
03F8
00FC
007E
003E
7C1E
7C1E
3E3E
3FFC
1FFC
07F0
ENDCHAR

STARTCHAR dieresis
ENCODING 168
SWIDTH 333 0
DWIDTH 11 0
BBX 11 4 0 20
BITMAP
F1E0
F1E0
F1E0
F1E0
ENDCHAR

STARTCHAR copyright
ENCODING 169
SWIDTH 737 0
DWIDTH 24 0
BBX 24 25 0 -1
BITMAP
00FF00
03FFC0
07C3F0
1F00F8
1C0038
38001C
707E0E
70FF0E
E1E387
E1C1C7
E38003
C38003
C38003
C38003
E38103
E1C3C7
61E787
70FF0E
707E0E
38001C
1E0078
0F00F0
07FFE0
01FF80
003E00
ENDCHAR

STARTCHAR ordfeminine
ENCODING 170
SWIDTH 370 0
DWIDTH 12 0
BBX 11 12 1 12
BITMAP
1F00
7FC0
FFC0
71C0
01C0
3FC0
7FC0
F1C0
E1C0
F3C0
FFC0
7DE0
ENDCHAR

STARTCHAR guillemotleft
ENCODING 171
SWIDTH 556 0
DWIDTH 18 0
BBX 15 15 2 1
BITMAP
0F1E
0F3C
1E78
3C78
3CF0
79F0
F9E0
F3E0
F9E0
79F0
3CF0
3C78
1E78
0F3C
0F1E
ENDCHAR

STARTCHAR logicalnot
ENCODING 172
SWIDTH 584 0
DWIDTH 19 0
BBX 16 11 2 6
BITMAP
FFFF
FFFF
FFFF
FFFF
000F
000F
000F
000F
000F
000F
000F
ENDCHAR

STARTCHAR hyphen
ENCODING 173
SWIDTH 333 0
DWIDTH 11 0
BBX 9 5 1 6
BITMAP
FF80
FF80
FF80
FF80
FF80
ENDCHAR

STARTCHAR registered
ENCODING 174
SWIDTH 737 0
DWIDTH 24 0
BBX 24 25 0 -1
BITMAP
00FF00
03FFC0
0FC3E0
1E0078
3C0038
38001C
73FE0E
63FF0E
E38787
E38387
C38383
C38783
C3FF03
C3F803
C39E03
E38E07
E38707
638786
7383CE
38001C
3C003C
1E0078
0FC3F0
03FFC0
00FF00
ENDCHAR

STARTCHAR macron
ENCODING 175
SWIDTH 333 0
DWIDTH 11 0
BBX 11 3 0 20
BITMAP
FFE0
FFE0
FFE0
ENDCHAR

STARTCHAR degree
ENCODING 176
SWIDTH 400 0
DWIDTH 13 0
BBX 11 11 1 13
BITMAP
1F00
3F80
7FC0
71E0
E0E0
E0E0
E0E0
71C0
7FC0
3F80
0E00
ENDCHAR

STARTCHAR plusminus
ENCODING 177
SWIDTH 584 0
DWIDTH 19 0
BBX 16 22 2 0
BITMAP
03C0
03C0
03C0
03C0
03C0
03C0
FFFF
FFFF
FFFF
FFFF
03C0
03C0
03C0
03C0
03C0
03C0
0000
0000
FFFF
FFFF
FFFF
FFFF
ENDCHAR

STARTCHAR twosuperior
ENCODING 178
SWIDTH 333 0
DWIDTH 11 0
BBX 10 12 0 12
BITMAP
3F00
7FC0
71C0
71C0
03C0
0780
0F00
1E00
3800
7FC0
7FC0
FFC0
ENDCHAR

STARTCHAR threesuperior
ENCODING 179
SWIDTH 333 0
DWIDTH 11 0
BBX 10 12 0 12
BITMAP
3E00
7F80
F380
2380
0F80
0F00
1F80
01C0
E1C0
73C0
7F80
3F00
ENDCHAR

STARTCHAR acute
ENCODING 180
SWIDTH 333 0
DWIDTH 11 0
BBX 7 5 3 19
BITMAP
3E
7C
78
70
E0
ENDCHAR

STARTCHAR mu
ENCODING 181
SWIDTH 611 0
DWIDTH 20 0
BBX 16 23 2 -6
BITMAP
F81F
F81F
F81F
F81F
F81F
F81F
F81F
F81F
F81F
F81F
F81F
F81F
FC3F
FFFF
FBF7
FBEF
F9CF
F800
F800
F800
F800
F800
F800
ENDCHAR

STARTCHAR paragraph
ENCODING 182
SWIDTH 556 0
DWIDTH 18 0
BBX 18 30 0 -6
BITMAP
1FFFC0
3FFFC0
7FFFC0
FFFFC0
FFCF00
FFCF00
FFCF00
FFCF00
FFCF00
FFCF00
7FCF00
3FCF00
1FCF00
03CF00
03CF00
03CF00
03CF00
03CF00
03CF00
03CF00
03CF00
03CF00
03CF00
03CF00
03CF00
03CF00
03CF00
03CF00
03CF00
03CF00
ENDCHAR

STARTCHAR periodcentered
ENCODING 183
SWIDTH 278 0
DWIDTH 9 0
BBX 5 5 2 9
BITMAP
F8
F8
F8
F8
F8
ENDCHAR

STARTCHAR cedilla
ENCODING 184
SWIDTH 333 0
DWIDTH 11 0
BBX 9 7 0 -7
BITMAP
3E00
3F80
0380
0380
0780
FF00
FE00
ENDCHAR

STARTCHAR onesuperior
ENCODING 185
SWIDTH 333 0
DWIDTH 11 0
BBX 6 12 2 12
BITMAP
1C
3C
7C
FC
DC
9C
1C
1C
1C
1C
1C
1C
ENDCHAR

STARTCHAR ordmasculine
ENCODING 186
SWIDTH 365 0
DWIDTH 12 0
BBX 11 12 0 12
BITMAP
1F00
3FC0
7FC0
F1E0
E0E0
E0E0
E0E0
E1E0
F1E0
7FC0
3F80
0F00
ENDCHAR

STARTCHAR guillemotright
ENCODING 187
SWIDTH 556 0
DWIDTH 18 0
BBX 15 15 2 1
BITMAP
F3C0
71E0
79E0
3CF0
3C78
1E78
1F3C
0F3E
1F3C
1E78
3C78
3CF0
79E0
71E0
F3C0
ENDCHAR

STARTCHAR onequarter
ENCODING 188
SWIDTH 834 0
DWIDTH 28 0
BBX 26 25 2 -1
BITMAP
1C003000
3C007000
7C00E000
FC00C000
DC01C000
1C018000
1C038000
1C070000
1C070000
1C0E0000
1C0C0000
1C1C0000
00180700
00380F00
00700F00
00601F00
00E03B00
00C07700
01C0E700
0181C700
0381FFC0
0701FFC0
06000700
0E000700
0C000000
ENDCHAR

STARTCHAR onehalf
ENCODING 189
SWIDTH 834 0
DWIDTH 28 0
BBX 25 25 2 -1
BITMAP
0C003000
1C007000
3C006000
FC00E000
EC01C000
9C018000
1C038000
1C030000
1C070000
1C0E0000
1C0E0000
1C1C0000
1C180000
00387E00
0030FF80
0070E380
00E1E380
00C00780
01C00F00
01801E00
03803C00
03007000
0700FF80
0E01FF80
0C01FF80
ENDCHAR

STARTCHAR threequarters
ENCODING 190
SWIDTH 834 0
DWIDTH 28 0
BBX 27 25 1 -1
BITMAP
3E001C00
7F801800
F3803000
23807000
0F806000
0F00E000
1F80C000
01C1C000
E1C18000
73C38000
7F870000
3F060000
000E0380
000C0780
001C0780
00180F80
00381D80
00303B80
00707380
00E06380
00E0FFE0
01C0FFE0
01800380
03800380
03000000
ENDCHAR

STARTCHAR questiondown
ENCODING 191
SWIDTH 611 0
DWIDTH 20 0
BBX 17 24 1 -7
BITMAP
03E000
03E000
03E000
03E000
03E000
000000
01E000
01E000
01E000
03E000
07C000
0FC000
3F8000
7F0000
7E0000
F80000
F80000
F00780
F80780
F80F80
7E3F00
3FFF00
1FFC00
07F800
ENDCHAR

STARTCHAR Agrave
ENCODING 192
SWIDTH 722 0
DWIDTH 24 0
BBX 24 30 0 0
BITMAP
01F800
007800
003C00
001C00
000C00
000000
007C00
007E00
00FE00
00FF00
00FF00
01FF00
01EF80
03EF80
03E7C0
03C7C0
07C3C0
07C3E0
0F83E0
0F81F0
0FFFF0
1FFFF0
1FFFF8
3FFFF8
3E007C
3E007C
7C007C
7C003E
7C003E
F8003F
ENDCHAR

STARTCHAR Aacute
ENCODING 193
SWIDTH 722 0
DWIDTH 24 0
BBX 24 30 0 0
BITMAP
001F80
001E00
003C00
003800
007000
000000
007C00
007E00
00FE00
00FF00
00FF00
01FF00
01EF80
03EF80
03E7C0
03C7C0
07C3C0
07C3E0
0F83E0
0F81F0
0FFFF0
1FFFF0
1FFFF8
3FFFF8
3E007C
3E007C
7C007C
7C003E
7C003E
F8003F
ENDCHAR

STARTCHAR Acircumflex
ENCODING 194
SWIDTH 722 0
DWIDTH 24 0
BBX 24 30 0 0
BITMAP
007E00
007E00
00F700
03E780
000000
000000
007C00
007E00
00FE00
00FF00
00FF00
01FF00
01EF80
03EF80
03E7C0
03C7C0
07C3C0
07C3E0
0F83E0
0F81F0
0FFFF0
1FFFF0
1FFFF8
3FFFF8
3E007C
3E007C
7C007C
7C003E
7C003E
F8003F
ENDCHAR

STARTCHAR Atilde
ENCODING 195
SWIDTH 722 0
DWIDTH 24 0
BBX 24 30 0 0
BITMAP
00E180
01FF80
03FF80
030700
000000
000000
007C00
007E00
00FE00
00FF00
00FF00
01FF00
01EF80
03EF80
03E7C0
03C7C0
07C3C0
07C3E0
0F83E0
0F81F0
0FFFF0
1FFFF0
1FFFF8
3FFFF8
3E007C
3E007C
7C007C
7C003E
7C003E
F8003F
ENDCHAR

STARTCHAR Adieresis
ENCODING 196
SWIDTH 722 0
DWIDTH 24 0
BBX 23 30 0 0
BITMAP
03C780
03C780
03C780
03C780
000000
000000
007C00
00FE00
00FE00
00FE00
01FF00
01FF00
03EF80
03EF80
03CF80
07C7C0
0787C0
0F83E0
0F83E0
0F01E0
1FFFF0
1FFFF0
3FFFF8
3FFFF8
3E00F8
7C007C
7C007C
78007C
F8003E
F8003E
ENDCHAR

STARTCHAR Aring
ENCODING 197
SWIDTH 722 0
DWIDTH 24 0
BBX 25 31 -1 0
BITMAP
001C0000
003E0000
00630000
00630000
003E0000
001C0000
00000000
007E0000
007F0000
007F0000
00FF8000
00FF8000
00FF8000
01F7C000
01F7C000
03E7E000
03E3E000
03C3E000
07C1F000
07C1F000
0F80F800
0FFFF800
0FFFF800
1FFFFC00
1FFFFC00
3E007C00
3E003E00
3E003E00
7C001F00
7C001F00
FC001F80
ENDCHAR

STARTCHAR AE
ENCODING 198
SWIDTH 1000 0
DWIDTH 33 0
BBX 33 24 -2 0
BITMAP
001FFFFF80
001FFFFF80
003FFFFF80
003FFFFF80
007CF80000
0078F80000
00F8F80000
00F8F80000
01F0F80000
01F0FFFF00
03E0FFFF00
03E0FFFF00
07C0FFFF00
07C0F80000
07FFF80000
0FFFF80000
0FFFF80000
1FFFF80000
1F00F80000
3E00F80000
3E00FFFF80
7E00FFFF80
7C00FFFF80
FC00FFFF80
ENDCHAR

STARTCHAR Ccedilla
ENCODING 199
SWIDTH 722 0
DWIDTH 24 0
BBX 21 31 2 -7
BITMAP
01FE00
07FF80
0FFFC0
1FFFE0
3F87F0
3E01F0
7C01F8
7C00C0
F80000
F80000
F80000
F80000
F80000
F80000
F80000
F80080
7C00F8
7C01F0
7E01F0
3F07F0
1FFFE0
0FFFC0
07FF80
01FE00
007800
00FC00
000E00
000E00
001E00
03FC00
03F000
ENDCHAR

STARTCHAR Egrave
ENCODING 200
SWIDTH 669 0
DWIDTH 22 0
BBX 18 30 2 0
BITMAP
0FC000
03C000
01E000
00F000
000000
000000
FFFFC0
FFFFC0
FFFFC0
FFFFC0
F80000
F80000
F80000
F80000
F80000
FFFF80
FFFF80
FFFF80
FFFF80
F80000
F80000
F80000
F80000
F80000
F80000
F80000
FFFFC0
FFFFC0
FFFFC0
FFFFC0
ENDCHAR

STARTCHAR Eacute
ENCODING 201
SWIDTH 669 0
DWIDTH 22 0
BBX 18 30 2 0
BITMAP
00FC00
00F000
01E000
01C000
000000
000000
FFFFC0
FFFFC0
FFFFC0
FFFFC0
F80000
F80000
F80000
F80000
F80000
FFFF80
FFFF80
FFFF80
FFFF80
F80000
F80000
F80000
F80000
F80000
F80000
F80000
FFFFC0
FFFFC0
FFFFC0
FFFFC0
ENDCHAR

STARTCHAR Ecircumflex
ENCODING 202
SWIDTH 669 0
DWIDTH 22 0
BBX 18 30 2 0
BITMAP
03F000
03F800
07B800
0F3E00
000000
000000
FFFFC0
FFFFC0
FFFFC0
FFFFC0
F80000
F80000
F80000
F80000
F80000
FFFF80
FFFF80
FFFF80
FFFF80
F80000
F80000
F80000
F80000
F80000
F80000
F80000
FFFFC0
FFFFC0
FFFFC0
FFFFC0
ENDCHAR

STARTCHAR Edieresis
ENCODING 203
SWIDTH 669 0
DWIDTH 22 0
BBX 19 30 2 0
BITMAP
0F1E00
0F1E00
0F1E00
0F1E00
000000
000000
FFFFC0
FFFFC0
FFFFC0
FFFFC0
F80000
F80000
F80000
F80000
F80000
FFFF80
FFFF80
FFFF80
FFFF80
F80000
F80000
F80000
F80000
F80000
F80000
F80000
FFFFE0
FFFFE0
FFFFE0
FFFFE0
ENDCHAR

STARTCHAR Igrave
ENCODING 204
SWIDTH 276 0
DWIDTH 9 0
BBX 7 30 0 0
BITMAP
F8
7C
3C
1E
0E
00
3E
3E
3E
3E
3E
3E
3E
3E
3E
3E
3E
3E
3E
3E
3E
3E
3E
3E
3E
3E
3E
3E
3E
3E
ENDCHAR

STARTCHAR Iacute
ENCODING 205
SWIDTH 276 0
DWIDTH 9 0
BBX 7 30 2 0
BITMAP
3E
7C
78
F0
E0
00
F8
F8
F8
F8
F8
F8
F8
F8
F8
F8
F8
F8
F8
F8
F8
F8
F8
F8
F8
F8
F8
F8
F8
F8
ENDCHAR

STARTCHAR Icircumflex
ENCODING 206
SWIDTH 276 0
DWIDTH 9 0
BBX 11 30 -1 0
BITMAP
1F00
3F80
7BC0
F1E0
0000
0000
1F00
1F00
1F00
1F00
1F00
1F00
1F00
1F00
1F00
1F00
1F00
1F00
1F00
1F00
1F00
1F00
1F00
1F00
1F00
1F00
1F00
1F00
1F00
1F00
ENDCHAR

STARTCHAR Idieresis
ENCODING 207
SWIDTH 276 0
DWIDTH 9 0
BBX 11 30 -1 0
BITMAP
F1E0
F1E0
F1E0
F1E0
0000
0000
1F00
1F00
1F00
1F00
1F00
1F00
1F00
1F00
1F00
1F00
1F00
1F00
1F00
1F00
1F00
1F00
1F00
1F00
1F00
1F00
1F00
1F00
1F00
1F00
ENDCHAR

STARTCHAR Gbreve
ENCODING 208
SWIDTH 775 0
DWIDTH 26 0
BBX 22 31 2 0
BITMAP
030300
030700
018E00
01FE00
00FC00
000000
000000
01FF00
07FFC0
0FFFE0
1FFFF0
3F83F8
3E00F8
7C007C
7C0040
F80000
F80000
F80000
F80FFC
F80FFC
F80FFC
F80FFC
7C007C
7C007C
7E007C
3F00FC
3F83FC
1FFFFC
0FFFF0
03FFC0
00FF00
ENDCHAR

STARTCHAR Ntilde
ENCODING 209
SWIDTH 722 0
DWIDTH 24 0
BBX 18 30 3 0
BITMAP
070C00
0FFC00
0FFC00
1C3800
000000
000000
F803C0
F803C0
FC03C0
FC03C0
FE03C0
FF03C0
FF03C0
FF83C0
F783C0
F7C3C0
F7E3C0
F3E3C0
F1F3C0
F1F3C0
F0FBC0
F07DC0
F07FC0
F03FC0
F03FC0
F01FC0
F00FC0
F00FC0
F007C0
F007C0
ENDCHAR

STARTCHAR Ograve
ENCODING 210
SWIDTH 775 0
DWIDTH 26 0
BBX 23 30 1 0
BITMAP
01F000
00F800
007800
003800
001C00
000000
01FE00
07FFC0
0FFFE0
1FFFF0
3F83F8
3E00FC
7C007C
7C007C
F8003E
F8003E
F8003E
F8003E
F8003E
F8003E
F8003E
FC003E
7C007C
7E007C
3F00FC
3F83F8
1FFFF0
0FFFE0
07FFC0
00FE00
ENDCHAR

STARTCHAR Oacute
ENCODING 211
SWIDTH 775 0
DWIDTH 26 0
BBX 23 30 1 0
BITMAP
001F00
003E00
003C00
003800
007000
000000
01FE00
07FFC0
0FFFE0
1FFFF0
3F83F8
3E00FC
7C007C
7C007C
F8003E
F8003E
F8003E
F8003E
F8003E
F8003E
F8003E
FC003E
7C007C
7E007C
3F00FC
3F83F8
1FFFF0
0FFFE0
07FFC0
00FE00
ENDCHAR

STARTCHAR Ocircumflex
ENCODING 212
SWIDTH 775 0
DWIDTH 26 0
BBX 23 30 1 0
BITMAP
007C00
00FE00
00EE00
01EF00
03C780
000000
01FE00
07FFC0
0FFFE0
1FFFF0
3F83F8
3E00FC
7C007C
7C007C
F8003E
F8003E
F8003E
F8003E
F8003E
F8003E
F8003E
FC003E
7C007C
7E007C
3F00FC
3F83F8
1FFFF0
0FFFE0
07FFC0
00FE00
ENDCHAR

STARTCHAR Otilde
ENCODING 213
SWIDTH 775 0
DWIDTH 26 0
BBX 23 30 1 0
BITMAP
01E180
03FF80
03FF00
030F00
000000
000000
01FE00
07FFC0
0FFFE0
1FFFF0
3F83F8
3E00FC
7C007C
7C007C
F8003E
F8003E
F8003E
F8003E
F8003E
F8003E
F8003E
FC003E
7C007C
7E007C
3F00FC
3F83F8
1FFFF0
0FFFE0
07FFC0
00FE00
ENDCHAR

STARTCHAR Odieresis
ENCODING 214
SWIDTH 775 0
DWIDTH 26 0
BBX 23 30 1 0
BITMAP
03C780
03C780
03C780
03C780
000000
000000
01FE00
07FFC0
0FFFE0
1FFFF0
3F83F8
3E00FC
7C007C
7C007C
F8003E
F8003E
F8003E
F8003E
F8003E
F8003E
F8003E
FC003E
7C007C
7E007C
3F00FC
3F83F8
1FFFF0
0FFFE0
07FFC0
00FE00
ENDCHAR

STARTCHAR multiply
ENCODING 215
SWIDTH 584 0
DWIDTH 19 0
BBX 16 16 2 4
BITMAP
1004
300C
781E
FC3E
7E7C
3FF8
1FF0
0FE0
07E0
0FF0
1FF8
3EFC
7C7F
F83E
701C
2008
ENDCHAR

STARTCHAR Oslash
ENCODING 216
SWIDTH 778 0
DWIDTH 26 0
BBX 23 26 1 -1
BITMAP
000004
00FE0E
07FFDE
0FFFFC
1FFFF8
3F82F8
3E01FC
7C01FC
7C03FC
F807BE
F80F3E
F81E3E
F83C3E
F8783E
F8F03E
F9E03E
FDC03E
7FC07C
7F807C
3F00FC
3F83F8
3FFFF0
7FFFE0
F3FFC0
E0FE00
200000
ENDCHAR

STARTCHAR Ugrave
ENCODING 217
SWIDTH 722 0
DWIDTH 24 0
BBX 19 30 2 0
BITMAP
07C000
03E000
01E000
00F000
007000
000000
F803E0
F803E0
F803E0
F803E0
F803E0
F803E0
F803E0
F803E0
F803E0
F803E0
F803E0
F803E0
F803E0
F803E0
F803E0
F803E0
F803E0
F803E0
7C07C0
7E0FC0
3FFFC0
3FFF80
1FFF00
07FC00
ENDCHAR

STARTCHAR Uacute
ENCODING 218
SWIDTH 722 0
DWIDTH 24 0
BBX 19 30 2 0
BITMAP
007C00
00F800
00F000
01E000
01C000
000000
F803E0
F803E0
F803E0
F803E0
F803E0
F803E0
F803E0
F803E0
F803E0
F803E0
F803E0
F803E0
F803E0
F803E0
F803E0
F803E0
F803E0
F803E0
7C07C0
7E0FC0
3FFFC0
3FFF80
1FFF00
07FC00
ENDCHAR

STARTCHAR Ucircumflex
ENCODING 219
SWIDTH 722 0
DWIDTH 24 0
BBX 19 30 2 0
BITMAP
01F000
03F800
07BC00
0F1E00
000000
000000
F803E0
F803E0
F803E0
F803E0
F803E0
F803E0
F803E0
F803E0
F803E0
F803E0
F803E0
F803E0
F803E0
F803E0
F803E0
F803E0
F803E0
F803E0
7C07C0
7E0FC0
3FFFC0
3FFF80
1FFF00
07FC00
ENDCHAR

STARTCHAR Udieresis
ENCODING 220
SWIDTH 722 0
DWIDTH 24 0
BBX 19 30 2 0
BITMAP
0F1E00
0F1E00
0F1E00
0F1E00
000000
000000
F803E0
F803E0
F803E0
F803E0
F803E0
F803E0
F803E0
F803E0
F803E0
F803E0
F803E0
F803E0
F803E0
F803E0
F803E0
F803E0
F803E0
F803E0
7C07C0
7E0FC0
3FFFC0
3FFF80
1FFF00
07FC00
ENDCHAR

STARTCHAR Idotaccent
ENCODING 221
SWIDTH 276 0
DWIDTH 9 0
BBX 5 30 2 0
BITMAP
F8
F8
F8
F8
00
00
F8
F8
F8
F8
F8
F8
F8
F8
F8
F8
F8
F8
F8
F8
F8
F8
F8
F8
F8
F8
F8
F8
F8
F8
ENDCHAR

STARTCHAR Scedilla
ENCODING 222
SWIDTH 667 0
DWIDTH 22 0
BBX 20 31 1 -7
BITMAP
03FC00
0FFF00
1FFFC0
3FFFC0
3E07E0
7C03E0
7C03E0
7E0000
3F8000
3FF000
1FFF00
0FFFC0
03FFC0
007FE0
0007F0
0001F0
F801F0
7C01F0
7C03F0
7F07E0
3FFFE0
1FFFC0
0FFF80
03FE00
00F800
00FC00
000E00
000E00
001E00
03FC00
03F000
ENDCHAR

STARTCHAR germandbls
ENCODING 223
SWIDTH 611 0
DWIDTH 20 0
BBX 17 24 2 0
BITMAP
0FE000
3FF800
7FF800
7CFC00
787C00
F87C00
F87800
F8F800
F8F000
F9F000
F9F000
F9F800
F8F800
F8FC00
F87E00
F83F00
F81F00
F80F80
F80F80
F8CF80
FBFF00
F9FF00
F8FE00
F87800
ENDCHAR

STARTCHAR agrave
ENCODING 224
SWIDTH 556 0
DWIDTH 18 0
BBX 16 24 1 0
BITMAP
1F80
0780
03C0
03C0
01E0
0000
0000
0FF8
3FFC
3FFE
7C3E
781E
001E
007E
0FFE
3FFE
7F1E
781E
F81E
F83E
FC7E
7FFE
3FEF
1F8F
ENDCHAR

STARTCHAR aacute
ENCODING 225
SWIDTH 556 0
DWIDTH 18 0
BBX 16 24 1 0
BITMAP
00F8
01F0
01E0
03C0
0380
0000
0000
0FF8
3FFC
3FFE
7C3E
781E
001E
007E
0FFE
3FFE
7F1E
781E
F81E
F83E
FC7E
7FFE
3FEF
1F8F
ENDCHAR

STARTCHAR acircumflex
ENCODING 226
SWIDTH 556 0
DWIDTH 18 0
BBX 16 24 1 0
BITMAP
03E0
07E0
07F0
0F78
1E3C
0000
0000
0FF8
3FFC
3FFE
7C3E
781E
001E
007E
0FFE
3FFE
7F1E
781E
F81E
F83E
FC7E
7FFE
3FEF
1F8F
ENDCHAR

STARTCHAR atilde
ENCODING 227
SWIDTH 556 0
DWIDTH 18 0
BBX 16 23 1 0
BITMAP
0E1C
1FF8
1FF8
1870
0000
0000
0FF8
3FFC
3FFE
7C3E
781E
001E
007E
0FFE
3FFE
7F1E
781E
F81E
F83E
FC7E
7FFE
3FEF
1F8F
ENDCHAR

STARTCHAR adieresis
ENCODING 228
SWIDTH 556 0
DWIDTH 18 0
BBX 16 24 1 0
BITMAP
1E3C
1E3C
1E3C
1E3C
0000
0000
0000
0FF8
3FFC
3FFE
7C3E
781E
001E
007E
0FFE
3FFE
7F1E
781E
F81E
F83E
FC7E
7FFE
3FEF
1F8F
ENDCHAR

STARTCHAR aring
ENCODING 229
SWIDTH 556 0
DWIDTH 18 0
BBX 16 25 1 0
BITMAP
01C0
03E0
0630
0630
0630
03E0
01C0
0000
0FF8
3FFC
3FFE
7C3E
781E
001E
007E
0FFE
3FFE
7F1E
781E
F81E
F83E
FC7E
7FFE
3FEF
1F8F
ENDCHAR

STARTCHAR ae
ENCODING 230
SWIDTH 889 0
DWIDTH 29 0
BBX 27 17 1 0
BITMAP
0FF1FC00
3FFFFF00
3FFFFF80
7C3F8F80
781F07C0
001F03C0
007E03C0
07FFFFE0
3FFFFFE0
7F1FFFE0
7C1E0000
F81F0000
F83F07C0
FC7F8FC0
7FFFFF80
3FF3FF00
1FC1FE00
ENDCHAR

STARTCHAR ccedilla
ENCODING 231
SWIDTH 556 0
DWIDTH 18 0
BBX 16 24 2 -7
BITMAP
0FF0
1FFC
3FFE
7E3E
7C1F
781C
F800
F800
F800
F800
F800
781F
7C1F
7E3E
3FFE
1FFC
0FF8
01C0
07E0
00F0
0070
0070
0FE0
0F80
ENDCHAR

STARTCHAR egrave
ENCODING 232
SWIDTH 556 0
DWIDTH 18 0
BBX 16 24 1 0
BITMAP
1F80
0F80
0780
03C0
01E0
0000
0000
07F0
1FF8
3FFC
7E3E
7C1E
781F
F80F
FFFF
FFFF
FFFF
F800
7800
7C1F
7E3E
3FFE
1FFC
07F0
ENDCHAR

STARTCHAR eacute
ENCODING 233
SWIDTH 556 0
DWIDTH 18 0
BBX 16 24 1 0
BITMAP
00F8
01F0
01E0
03C0
0380
0000
0000
07F0
1FF8
3FFC
7E3E
7C1E
781F
F80F
FFFF
FFFF
FFFF
F800
7800
7C1F
7E3E
3FFE
1FFC
07F0
ENDCHAR

STARTCHAR ecircumflex
ENCODING 234
SWIDTH 556 0
DWIDTH 18 0
BBX 16 24 1 0
BITMAP
03C0
07E0
0FF0
0E78
1E3C
0000
0000
07F0
1FF8
3FFC
7E3E
7C1E
781F
F80F
FFFF
FFFF
FFFF
F800
7800
7C1F
7E3E
3FFE
1FFC
07F0
ENDCHAR

STARTCHAR edieresis
ENCODING 235
SWIDTH 556 0
DWIDTH 18 0
BBX 17 24 1 0
BITMAP
1E3C00
1E3C00
1E3C00
1E3C00
000000
000000
000000
07F000
1FFC00
3FFE00
7E3E00
7C1F00
780F00
F80F00
FFFF00
FFFF80
FFFF80
F80000
780000
7C1F00
7E3F00
3FFE00
1FFC00
07F800
ENDCHAR

STARTCHAR igrave
ENCODING 236
SWIDTH 276 0
DWIDTH 9 0
BBX 7 24 0 0
BITMAP
F8
78
3C
1C
0E
00
00
3E
3E
3E
3E
3E
3E
3E
3E
3E
3E
3E
3E
3E
3E
3E
3E
3E
ENDCHAR

STARTCHAR iacute
ENCODING 237
SWIDTH 276 0
DWIDTH 9 0
BBX 7 24 2 0
BITMAP
3E
3C
78
70
E0
00
00
F8
F8
F8
F8
F8
F8
F8
F8
F8
F8
F8
F8
F8
F8
F8
F8
F8
ENDCHAR

STARTCHAR icircumflex
ENCODING 238
SWIDTH 276 0
DWIDTH 9 0
BBX 11 24 -1 0
BITMAP
1F00
1F80
3F80
7BC0
F1E0
0000
0000
1F00
1F00
1F00
1F00
1F00
1F00
1F00
1F00
1F00
1F00
1F00
1F00
1F00
1F00
1F00
1F00
1F00
ENDCHAR

STARTCHAR idieresis
ENCODING 239
SWIDTH 276 0
DWIDTH 9 0
BBX 11 24 -1 0
BITMAP
F1E0
F1E0
F1E0
F1E0
0000
0000
0000
1F00
1F00
1F00
1F00
1F00
1F00
1F00
1F00
1F00
1F00
1F00
1F00
1F00
1F00
1F00
1F00
1F00
ENDCHAR

STARTCHAR gbreve
ENCODING 240
SWIDTH 611 0
DWIDTH 20 0
BBX 17 31 1 -7
BITMAP
1C0C00
0C1C00
0E3800
07F800
03E000
000000
000000
0FE780
1FF780
3FFF80
7E3F80
7C0F80
780F80
F80780
F80780
F80780
F80780
F80F80
7C0F80
7E1F80
3FFF80
3FF780
1FE780
07C780
000780
700F80
7C0F80
7F3F00
3FFF00
3FFE00
0FFC00
ENDCHAR

STARTCHAR ntilde
ENCODING 241
SWIDTH 611 0
DWIDTH 20 0
BBX 16 23 2 0
BITMAP
0E18
1FF8
3FF8
3870
0000
0000
F1F8
F7FE
F7FE
FE3F
FC1F
F81F
F81F
F81F
F81F
F81F
F81F
F81F
F81F
F81F
F81F
F81F
F81F
ENDCHAR

STARTCHAR ograve
ENCODING 242
SWIDTH 611 0
DWIDTH 20 0
BBX 18 23 1 0
BITMAP
0FC000
03C000
01E000
00F000
000000
000000
03F000
0FFC00
1FFE00
3FFF00
7E0F80
7C0F80
F807C0
F807C0
F807C0
F807C0
F807C0
7C0F80
7E1F80
3FFF00
1FFE00
0FFC00
03F000
ENDCHAR

STARTCHAR oacute
ENCODING 243
SWIDTH 611 0
DWIDTH 20 0
BBX 18 23 1 0
BITMAP
00FC00
00F000
01E000
01C000
000000
000000
03F000
0FFC00
1FFE00
3FFF00
7E0F80
7C0F80
F807C0
F807C0
F807C0
F807C0
F807C0
7C0F80
7E1F80
3FFF00
1FFE00
0FFC00
03F000
ENDCHAR

STARTCHAR ocircumflex
ENCODING 244
SWIDTH 611 0
DWIDTH 20 0
BBX 18 23 1 0
BITMAP
03F000
03F000
07B800
0F3C00
000000
000000
03F000
0FFC00
1FFE00
3FFF00
7E0F80
7C0F80
F807C0
F807C0
F807C0
F807C0
F807C0
7C0F80
7E1F80
3FFF00
1FFE00
0FFC00
03F000
ENDCHAR

STARTCHAR otilde
ENCODING 245
SWIDTH 611 0
DWIDTH 20 0
BBX 18 23 1 0
BITMAP
070C00
0FFC00
1FFC00
183800
000000
000000
03F000
0FFC00
1FFE00
3FFF00
7E0F80
7C0F80
F807C0
F807C0
F807C0
F807C0
F807C0
7C0F80
7E1F80
3FFF00
1FFE00
0FFC00
03F000
ENDCHAR

STARTCHAR odieresis
ENCODING 246
SWIDTH 611 0
DWIDTH 20 0
BBX 18 24 1 0
BITMAP
0F1E00
0F1E00
0F1E00
0F1E00
000000
000000
000000
03F000
0FFC00
1FFE00
3FFF00
7E0F80
7C0F80
F807C0
F807C0
F807C0
F807C0
F807C0
7C0F80
7E1F80
3FFF00
1FFE00
0FFC00
03F000
ENDCHAR

STARTCHAR divide
ENCODING 247
SWIDTH 584 0
DWIDTH 19 0
BBX 17 18 1 3
BITMAP
03E000
03E000
03E000
03E000
03E000
000000
000000
FFFF80
FFFF80
FFFF80
FFFF80
000000
000000
03E000
03E000
03E000
03E000
03E000
ENDCHAR

STARTCHAR oslash
ENCODING 248
SWIDTH 611 0
DWIDTH 20 0
BBX 17 19 2 -1
BITMAP
000100
07F380
1FFF00
3FFE00
7E1F00
7C3F00
F83F80
F07780
F0E780
F1C780
F38780
FB0780
FE0F80
7C1F00
7E3F00
3FFE00
7FFC00
E7F000
400000
ENDCHAR

STARTCHAR ugrave
ENCODING 249
SWIDTH 611 0
DWIDTH 20 0
BBX 16 24 2 0
BITMAP
1F00
0F80
0780
03C0
01C0
0000
0000
F81F
F81F
F81F
F81F
F81F
F81F
F81F
F81F
F81F
F81F
F81F
F81F
F83F
7C7F
7FEF
3FEF
1F8F
ENDCHAR

STARTCHAR uacute
ENCODING 250
SWIDTH 611 0
DWIDTH 20 0
BBX 16 24 2 0
BITMAP
00F8
01F0
01E0
03C0
0380
0000
0000
F81F
F81F
F81F
F81F
F81F
F81F
F81F
F81F
F81F
F81F
F81F
F81F
F83F
7C7F
7FEF
3FEF
1F8F
ENDCHAR

STARTCHAR ucircumflex
ENCODING 251
SWIDTH 611 0
DWIDTH 20 0
BBX 16 24 2 0
BITMAP
03C0
07E0
0FF0
0E70
1E78
0000
0000
F81F
F81F
F81F
F81F
F81F
F81F
F81F
F81F
F81F
F81F
F81F
F81F
F83F
7C7F
7FEF
3FEF
1F8F
ENDCHAR

STARTCHAR udieresis
ENCODING 252
SWIDTH 611 0
DWIDTH 20 0
BBX 16 24 2 0
BITMAP
3C78
3C78
3C78
3C78
0000
0000
0000
F81F
F81F
F81F
F81F
F81F
F81F
F81F
F81F
F81F
F81F
F81F
F81F
F83F
7C7F
7FEF
3FEF
1F8F
ENDCHAR

STARTCHAR dotlessi
ENCODING 253
SWIDTH 278 0
DWIDTH 9 0
BBX 5 17 2 0
BITMAP
F8
F8
F8
F8
F8
F8
F8
F8
F8
F8
F8
F8
F8
F8
F8
F8
F8
ENDCHAR

STARTCHAR scedilla
ENCODING 254
SWIDTH 556 0
DWIDTH 18 0
BBX 16 24 1 -7
BITMAP
0FF0
3FFC
3FFC
7C3E
781C
7C00
7FC0
3FF8
1FFC
0FFE
00FF
081F
F81F
7C1E
7FFE
3FFC
0FF8
01C0
03F0
0038
0038
0038
07F0
07C0
ENDCHAR

STARTCHAR ydieresis
ENCODING 255
SWIDTH 556 0
DWIDTH 18 0
BBX 17 31 1 -7
BITMAP
1E3C00
1E3C00
1E3C00
1E3C00
000000
000000
000000
F80780
F80F80
780F00
7C1F00
7C1F00
3C1E00
3E3E00
1E3E00
1E3C00
1F7C00
0F7800
0F7800
0FF800
07F000
07F000
03F000
03E000
03E000
03C000
07C000
7FC000
7F8000
7F0000
7C0000
ENDCHAR
ENDFONT
